<?xml version="1.0" encoding="utf-8"?>
<!-- Generator: Adobe Illustrator 19.0.0, SVG Export Plug-In . SVG Version: 6.00 Build 0)  -->
<svg version="1.1" id="Layer_1" xmlns="http://www.w3.org/2000/svg" xmlns:xlink="http://www.w3.org/1999/xlink" x="0px" y="0px"
	 viewBox="0 0 54 54" enable-background="new 0 0 54 54" xml:space="preserve">
<g id="Icons">
	<g id="Black" transform="translate(-304.000000, -560.000000)">
		<path id="Android" fill="#FFFFFF" d="M333.8,579.8c-0.4,0-0.7-0.3-0.7-0.7s0.3-0.7,0.7-0.7s0.7,0.3,0.7,0.7
			S334.2,579.8,333.8,579.8L333.8,579.8z M328.1,579.8c-0.4,0-0.7-0.3-0.7-0.7s0.3-0.7,0.7-0.7s0.7,0.3,0.7,0.7
			S328.5,579.8,328.1,579.8L328.1,579.8z M334.2,577l0.3-0.4l0.3-0.4l0.6-0.9c0.1-0.1,0-0.3-0.1-0.3c-0.1-0.1-0.3,0-0.3,0.1
			l-0.9,1.3l-0.3,0.4c-0.9-0.3-1.8-0.5-2.9-0.5c-1,0-2,0.2-2.9,0.5l-0.3-0.4l-0.3-0.4l-0.6-0.9c-0.1-0.1-0.2-0.1-0.3-0.1
			c-0.1,0.1-0.1,0.2-0.1,0.3l0.6,0.9l0.3,0.4l0.3,0.4c-2,0.9-3.4,2.7-3.4,4.7h13.4C337.6,579.6,336.3,577.9,334.2,577z M324.3,582.6
			h-0.1v10.3c0,0.8,0.7,1.5,1.5,1.5h1.1c0,0.1-0.1,0.3-0.1,0.4v3c0,0.8,0.6,1.4,1.4,1.4c0.8,0,1.4-0.6,1.4-1.4v-3
			c0-0.1,0-0.3-0.1-0.4h2.7c0,0.1-0.1,0.3-0.1,0.4v3c0,0.8,0.6,1.4,1.4,1.4c0.8,0,1.4-0.6,1.4-1.4v-3c0-0.1,0-0.3-0.1-0.4h1.1
			c0.8,0,1.5-0.7,1.5-1.5v-10.3H324.3z M321.8,582.6c-0.8,0-1.4,0.6-1.4,1.4v6c0,0.8,0.6,1.4,1.4,1.4c0.8,0,1.4-0.6,1.4-1.4v-6
			C323.3,583.2,322.6,582.6,321.8,582.6z M340,582.6c-0.8,0-1.4,0.6-1.4,1.4v6c0,0.8,0.6,1.4,1.4,1.4c0.8,0,1.4-0.6,1.4-1.4v-6
			C341.5,583.2,340.8,582.6,340,582.6z"/>
	</g>
</g>
</svg>
