<?xml version="1.0" encoding="utf-8"?>
<!-- Generator: Adobe Illustrator 19.0.0, SVG Export Plug-In . SVG Version: 6.00 Build 0)  -->
<svg version="1.1" id="Layer_1" xmlns="http://www.w3.org/2000/svg" xmlns:xlink="http://www.w3.org/1999/xlink" x="0px" y="0px"
	 viewBox="0 0 54 54" enable-background="new 0 0 54 54" xml:space="preserve">
<g id="Filled_Icons">
	<g id="XMLID_7_">
		<path id="XMLID_9_" fill="#FFFFFF" d="M33.6,26.4c0-3,2.5-4.5,2.6-4.6c-1.4-2.1-3.6-2.3-4.4-2.4c-1.9-0.2-3.7,1.1-4.6,1.1
			c-0.9,0-2.4-1.1-4-1c-2,0-3.9,1.2-5,3c-2.1,3.7-0.5,9.1,1.5,12.1c1,1.5,2.2,3.1,3.8,3c1.5-0.1,2.1-1,3.9-1c1.8,0,2.4,1,4,1
			c1.6,0,2.7-1.5,3.7-3c1.2-1.7,1.6-3.3,1.7-3.4C36.7,31.2,33.6,30,33.6,26.4z"/>
		<path id="XMLID_8_" fill="#FFFFFF" d="M30.7,16.4c0.9-1.1,1.5-2.6,1.3-4c-1.3,0.1-2.8,0.8-3.7,1.9c-0.8,1-1.5,2.5-1.3,3.9
			C28.4,18.3,29.8,17.4,30.7,16.4z"/>
	</g>
</g>
</svg>
