<svg xmlns="http://www.w3.org/2000/svg" xmlns:xlink="http://www.w3.org/1999/xlink" preserveAspectRatio="xMidYMid" width="100" height="100" viewBox="0 0 100 100">
  <defs>
    <style>
      .cls-1 {
        fill: #fff;
        fill-rule: evenodd;
      }
    </style>
  </defs>
  <path d="M42.023,8.233 C41.850,8.363 41.769,8.520 41.739,8.693 C45.025,12.735 47.000,17.885 47.000,23.500 C47.000,36.479 36.479,47.000 23.500,47.000 C10.521,47.000 -0.000,36.479 -0.000,23.500 C-0.000,10.521 10.521,0.000 23.500,0.000 C30.751,0.000 37.231,3.288 41.542,8.451 C42.167,8.116 42.555,7.835 42.023,8.233 ZM23.500,5.875 C13.766,5.875 5.875,13.766 5.875,23.500 C5.875,33.234 13.766,41.125 23.500,41.125 C33.234,41.125 41.125,33.234 41.125,23.500 C41.125,23.007 41.091,22.523 41.051,22.041 C39.846,22.427 38.057,22.554 37.912,23.133 C37.494,24.806 34.699,25.061 34.699,25.061 C34.699,25.061 31.303,27.723 30.568,27.172 C29.834,26.621 31.394,22.307 32.129,22.031 C32.863,21.756 32.129,19.828 32.129,19.277 C32.129,19.020 29.314,14.730 29.375,14.779 C28.894,14.395 29.100,10.740 30.293,10.648 C31.486,10.557 35.434,11.291 34.699,12.576 C34.434,13.041 35.037,12.973 35.878,12.729 C35.995,12.561 36.141,12.383 36.311,12.128 C36.427,11.954 36.479,11.795 36.504,11.643 C33.281,8.110 28.659,5.875 23.500,5.875 ZM32.312,32.772 C32.771,33.598 35.801,34.057 34.516,33.873 C33.230,33.689 33.506,36.352 31.853,36.076 C30.201,35.801 29.375,36.902 27.723,36.902 C26.315,36.902 24.326,35.342 23.775,34.699 C23.225,34.057 25.060,34.607 25.795,33.598 C26.529,32.588 26.805,32.772 27.723,32.588 C28.641,32.404 28.549,31.578 29.283,31.486 C30.018,31.394 31.853,31.945 32.312,32.772 ZM22.301,10.244 C22.301,10.244 17.931,13.177 16.633,10.970 C15.335,8.763 13.705,11.321 11.173,13.463 C8.642,15.605 10.998,11.235 15.037,8.481 C19.076,5.727 21.716,6.151 23.376,6.453 C24.386,6.637 26.468,6.854 26.468,6.854 L23.978,10.704 L22.301,10.244 ZM13.402,18.727 C13.861,17.992 15.605,12.576 17.258,12.576 C18.910,12.576 21.044,10.915 19.277,13.035 C18.321,14.182 18.460,14.630 18.606,14.772 C18.525,14.745 18.394,14.715 18.176,14.687 C16.707,14.504 16.799,18.910 17.441,19.644 C18.084,20.379 18.359,21.572 19.277,20.746 C20.654,20.746 18.910,20.930 21.389,21.205 C23.867,21.480 24.051,20.562 23.959,22.490 C23.867,24.418 22.490,24.693 22.215,25.795 C21.939,26.896 20.838,28.457 21.021,29.375 C21.205,30.293 21.113,30.660 21.480,31.578 C21.848,32.496 21.848,35.617 21.205,35.617 C20.562,35.617 19.920,33.047 19.920,33.047 L17.900,31.027 L16.248,33.322 L14.412,32.955 L13.127,32.037 C13.127,32.037 9.180,31.853 8.996,30.568 C8.812,29.283 6.518,27.814 6.518,26.254 C6.518,24.693 5.508,22.123 6.334,21.572 C7.160,21.021 7.160,21.939 7.986,21.480 C8.812,21.021 8.537,20.287 10.006,20.287 C11.475,20.287 12.943,19.461 13.402,18.727 ZM18.606,14.772 C18.787,14.830 18.698,14.862 18.606,14.772 Z" transform="translate(26.5 26.5)" class="cls-1"/>
</svg>
