<svg xmlns="http://www.w3.org/2000/svg" xmlns:xlink="http://www.w3.org/1999/xlink" preserveAspectRatio="xMidYMid" width="100" height="100" viewBox="0 0 100 100">
  <defs>
    <style>
      .cls-1 {
        fill: #fff;
        fill-rule: evenodd;
      }
    </style>
  </defs>
  <path d="M43.003,24.241 L43.003,18.740 L38.408,18.372 C38.242,17.467 38.007,16.586 37.705,15.736 L41.498,13.122 L38.747,8.359 L34.582,10.339 C33.990,9.646 33.347,9.003 32.655,8.412 L34.635,4.246 L29.871,1.496 L27.257,5.289 C26.407,4.987 25.526,4.752 24.621,4.586 L24.252,-0.009 L18.752,-0.009 L18.384,4.586 C17.479,4.752 16.598,4.987 15.748,5.289 L13.134,1.497 L8.370,4.246 L10.350,8.412 C9.658,9.003 9.014,9.646 8.423,10.339 L4.258,8.359 L1.508,13.123 L5.300,15.736 C4.998,16.586 4.764,17.467 4.598,18.373 L0.003,18.741 L0.003,24.241 L4.598,24.609 C4.764,25.514 4.998,26.395 5.300,27.245 L1.509,29.859 L4.259,34.622 L8.423,32.643 C9.014,33.335 9.659,33.980 10.351,34.570 L8.371,38.735 L13.135,41.485 L15.748,37.693 C16.598,37.995 17.479,38.230 18.384,38.396 L18.752,42.991 L24.253,42.991 L24.621,38.396 C25.526,38.230 26.407,37.995 27.257,37.693 L29.871,41.485 L34.635,38.735 L32.655,34.570 C33.347,33.979 33.991,33.335 34.582,32.642 L38.747,34.622 L41.498,29.859 L37.705,27.245 C38.007,26.394 38.242,25.514 38.408,24.609 L43.003,24.241 ZM21.503,25.791 C19.128,25.791 17.203,23.866 17.203,21.491 C17.203,19.116 19.128,17.191 21.503,17.191 C23.878,17.191 25.803,19.116 25.803,21.491 C25.803,23.866 23.878,25.791 21.503,25.791 Z" transform="translate(28.5 28.5)" class="cls-1"/>
</svg>
